<?xml version="1.0" encoding="utf-8"?>
<!-- Generator: Adobe Illustrator 26.0.1, SVG Export Plug-In . SVG Version: 6.00 Build 0)  -->
<svg version="1.1" id="Слой_1" xmlns="http://www.w3.org/2000/svg" xmlns:xlink="http://www.w3.org/1999/xlink" x="0px" y="0px"
	 viewBox="0 0 19 20" style="enable-background:new 0 0 19 20;" xml:space="preserve">
<style type="text/css">
	.st0{fill:#000;}
</style>
<path class="st0" d="M9.5,0.5c-5.5,0-10,4.4-10,9.7c0,4.3,2.9,8,6.8,9.2C6.8,19.5,7,19.2,7,18.9c0-0.2,0-0.8,0-1.7
	c-2.8,0.6-3.4-1.3-3.4-1.3c-0.5-1.1-1.1-1.4-1.1-1.4c-0.9-0.6,0.1-0.6,0.1-0.6c1,0.1,1.5,1,1.5,1C5,16.4,6.4,16,7,15.7
	c0.1-0.6,0.3-1.1,0.6-1.3C5.4,14.2,3,13.3,3,9.6C3,8.5,3.4,7.7,4,7C3.9,6.8,3.6,5.8,4.1,4.4c0,0,0.8-0.3,2.8,1
	c0.8-0.2,1.7-0.3,2.5-0.3s1.7,0.1,2.5,0.3c2-1.1,2.8-0.9,2.8-0.9c0.5,1.3,0.2,2.3,0.1,2.6c0.6,0.7,1,1.6,1,2.6
	c0,3.8-2.3,4.6-4.5,4.8c0.3,0.3,0.7,0.9,0.7,1.8c0,1.3,0,2.4,0,2.7s0.2,0.6,0.7,0.5c3.9-1.3,6.8-5,6.8-9.3C19.5,4.9,15,0.5,9.5,0.5z
	"/>
</svg>
