<?xml version="1.0" encoding="utf-8"?>
<!-- Generator: Adobe Illustrator 26.0.1, SVG Export Plug-In . SVG Version: 6.00 Build 0)  -->
<svg version="1.1" id="Слой_1" xmlns="http://www.w3.org/2000/svg" xmlns:xlink="http://www.w3.org/1999/xlink" x="0px" y="0px"
	 viewBox="0 0 20 20" style="enable-background:new 0 0 20 20;" xml:space="preserve">
<style type="text/css">
	.st0{fill:#000;}
</style>
<path class="st0" d="M0,6.3l0,7.5C0,17.2,2.8,20,6.3,20h7.5c3.5,0,6.3-2.8,6.3-6.3V6.3C20,2.8,17.2,0,13.8,0L6.3,0
	C2.8,0,0,2.8,0,6.3z M13.8,1.9c2.4,0,4.4,2,4.4,4.4v7.5c0,2.4-2,4.4-4.4,4.4H6.3c-2.4,0-4.4-2-4.4-4.4V6.3c0-2.4,2-4.4,4.4-4.4H13.8
	z"/>
<path class="st0" d="M5,10c0,2.8,2.2,5,5,5c2.8,0,5-2.2,5-5c0-2.8-2.2-5-5-5C7.2,5,5,7.2,5,10z M13.1,10c0,1.7-1.4,3.1-3.1,3.1
	c-1.7,0-3.1-1.4-3.1-3.1S8.3,6.9,10,6.9C11.7,6.9,13.1,8.3,13.1,10z"/>
<path class="st0" d="M5.3,4.6C5.3,4.3,5,4,4.6,4S4,4.3,4,4.6s0.3,0.7,0.7,0.7S5.3,5,5.3,4.6z"/>
</svg>
