<?xml version="1.0" encoding="utf-8"?>
<!-- Generator: Adobe Illustrator 26.0.1, SVG Export Plug-In . SVG Version: 6.00 Build 0)  -->
<svg version="1.1" xmlns="http://www.w3.org/2000/svg" xmlns:xlink="http://www.w3.org/1999/xlink" x="0px" y="0px"
	 viewBox="0 0 30 30" style="enable-background:new 0 0 30 30;" xml:space="preserve">
<style type="text/css">
	.st0{fill:#000;}
</style>
<g id="Слой_1">
</g>
<g id="Слой_2">
	<path class="st0" d="M15,30c8.3,0,15-6.7,15-15S23.3,0,15,0S0,6.7,0,15S6.7,30,15,30z M6.9,14.7l14.5-5.6c0.7-0.2,1.3,0.2,1,1.2
		l0,0l-2.5,11.6c-0.2,0.8-0.7,1-1.4,0.6l-3.7-2.8L13,21.5c-0.2,0.2-0.4,0.4-0.8,0.4l0.3-3.8l6.9-6.3c0.3-0.3-0.1-0.4-0.5-0.2
		L10.4,17l-3.7-1.2C5.9,15.6,5.9,15.1,6.9,14.7z"/>
</g>
</svg>
